<mxfile host="65bd71144e">
    <diagram id="T0UZjHWa2bMaNo9wMXNT" name="Page-1">
        <mxGraphModel dx="675" dy="397" grid="1" gridSize="10" guides="1" tooltips="1" connect="1" arrows="1" fold="1" page="1" pageScale="1" pageWidth="850" pageHeight="1100" math="0" shadow="0">
            <root>
                <mxCell id="0"/>
                <mxCell id="1" parent="0"/>
                <mxCell id="43" value="" style="group" vertex="1" connectable="0" parent="1">
                    <mxGeometry x="150" y="540" width="200" height="160" as="geometry"/>
                </mxCell>
                <mxCell id="33" value="" style="shape=internalStorage;whiteSpace=wrap;html=1;backgroundOutline=1;" vertex="1" parent="43">
                    <mxGeometry width="200" height="160" as="geometry"/>
                </mxCell>
                <mxCell id="37" value="Item 3" style="text;strokeColor=none;fillColor=none;align=left;verticalAlign=middle;spacingLeft=4;spacingRight=4;overflow=hidden;points=[[0,0.5],[1,0.5]];portConstraint=eastwest;rotatable=0;" vertex="1" parent="43">
                    <mxGeometry x="20" y="80" width="180" height="30" as="geometry"/>
                </mxCell>
                <mxCell id="36" value="Item 2" style="text;strokeColor=none;fillColor=none;align=left;verticalAlign=middle;spacingLeft=4;spacingRight=4;overflow=hidden;points=[[0,0.5],[1,0.5]];portConstraint=eastwest;rotatable=0;" vertex="1" parent="43">
                    <mxGeometry x="20" y="50" width="180" height="30" as="geometry"/>
                </mxCell>
                <mxCell id="35" value="Item 1" style="text;strokeColor=none;fillColor=none;align=left;verticalAlign=middle;spacingLeft=4;spacingRight=4;overflow=hidden;points=[[0,0.5],[1,0.5]];portConstraint=eastwest;rotatable=0;" vertex="1" parent="43">
                    <mxGeometry x="20" y="20" width="180" height="30" as="geometry"/>
                </mxCell>
                <mxCell id="34" value="List" style="swimlane;fontStyle=0;childLayout=stackLayout;horizontal=1;startSize=20;horizontalStack=0;resizeParent=1;resizeParentMax=0;resizeLast=0;collapsible=1;marginBottom=0;" vertex="1" parent="43">
                    <mxGeometry x="20" width="180" height="20" as="geometry"/>
                </mxCell>
                <mxCell id="44" value="" style="group" vertex="1" connectable="0" parent="1">
                    <mxGeometry x="160" y="550" width="200" height="160" as="geometry"/>
                </mxCell>
                <mxCell id="45" value="" style="shape=internalStorage;whiteSpace=wrap;html=1;backgroundOutline=1;" vertex="1" parent="44">
                    <mxGeometry width="200" height="160" as="geometry"/>
                </mxCell>
                <mxCell id="46" value="Item 3" style="text;strokeColor=none;fillColor=none;align=left;verticalAlign=middle;spacingLeft=4;spacingRight=4;overflow=hidden;points=[[0,0.5],[1,0.5]];portConstraint=eastwest;rotatable=0;" vertex="1" parent="44">
                    <mxGeometry x="20" y="80" width="180" height="30" as="geometry"/>
                </mxCell>
                <mxCell id="47" value="Item 2" style="text;strokeColor=none;fillColor=none;align=left;verticalAlign=middle;spacingLeft=4;spacingRight=4;overflow=hidden;points=[[0,0.5],[1,0.5]];portConstraint=eastwest;rotatable=0;" vertex="1" parent="44">
                    <mxGeometry x="20" y="50" width="180" height="30" as="geometry"/>
                </mxCell>
                <mxCell id="48" value="Item 1" style="text;strokeColor=none;fillColor=none;align=left;verticalAlign=middle;spacingLeft=4;spacingRight=4;overflow=hidden;points=[[0,0.5],[1,0.5]];portConstraint=eastwest;rotatable=0;" vertex="1" parent="44">
                    <mxGeometry x="20" y="20" width="180" height="30" as="geometry"/>
                </mxCell>
                <mxCell id="49" value="List" style="swimlane;fontStyle=0;childLayout=stackLayout;horizontal=1;startSize=20;horizontalStack=0;resizeParent=1;resizeParentMax=0;resizeLast=0;collapsible=1;marginBottom=0;" vertex="1" parent="44">
                    <mxGeometry x="20" width="180" height="20" as="geometry"/>
                </mxCell>
                <mxCell id="50" value="" style="group" vertex="1" connectable="0" parent="1">
                    <mxGeometry x="170" y="560" width="200" height="160" as="geometry"/>
                </mxCell>
                <mxCell id="51" value="" style="shape=internalStorage;whiteSpace=wrap;html=1;backgroundOutline=1;" vertex="1" parent="50">
                    <mxGeometry width="200" height="160" as="geometry"/>
                </mxCell>
                <mxCell id="52" value="Item 3" style="text;strokeColor=none;fillColor=none;align=left;verticalAlign=middle;spacingLeft=4;spacingRight=4;overflow=hidden;points=[[0,0.5],[1,0.5]];portConstraint=eastwest;rotatable=0;" vertex="1" parent="50">
                    <mxGeometry x="20" y="80" width="180" height="30" as="geometry"/>
                </mxCell>
                <mxCell id="53" value="Item 2" style="text;strokeColor=none;fillColor=none;align=left;verticalAlign=middle;spacingLeft=4;spacingRight=4;overflow=hidden;points=[[0,0.5],[1,0.5]];portConstraint=eastwest;rotatable=0;" vertex="1" parent="50">
                    <mxGeometry x="20" y="50" width="180" height="30" as="geometry"/>
                </mxCell>
                <mxCell id="54" value="Item 1" style="text;strokeColor=none;fillColor=none;align=left;verticalAlign=middle;spacingLeft=4;spacingRight=4;overflow=hidden;points=[[0,0.5],[1,0.5]];portConstraint=eastwest;rotatable=0;" vertex="1" parent="50">
                    <mxGeometry x="20" y="20" width="180" height="30" as="geometry"/>
                </mxCell>
                <mxCell id="55" value="List" style="swimlane;fontStyle=0;childLayout=stackLayout;horizontal=1;startSize=20;horizontalStack=0;resizeParent=1;resizeParentMax=0;resizeLast=0;collapsible=1;marginBottom=0;" vertex="1" parent="50">
                    <mxGeometry x="20" width="180" height="20" as="geometry"/>
                </mxCell>
                <mxCell id="56" value="" style="group" vertex="1" connectable="0" parent="1">
                    <mxGeometry x="180" y="570" width="200" height="160" as="geometry"/>
                </mxCell>
                <mxCell id="57" value="" style="shape=internalStorage;whiteSpace=wrap;html=1;backgroundOutline=1;" vertex="1" parent="56">
                    <mxGeometry width="200" height="160" as="geometry"/>
                </mxCell>
                <mxCell id="58" value="Item 3" style="text;strokeColor=none;fillColor=none;align=left;verticalAlign=middle;spacingLeft=4;spacingRight=4;overflow=hidden;points=[[0,0.5],[1,0.5]];portConstraint=eastwest;rotatable=0;" vertex="1" parent="56">
                    <mxGeometry x="20" y="80" width="180" height="30" as="geometry"/>
                </mxCell>
                <mxCell id="59" value="Item 2" style="text;strokeColor=none;fillColor=none;align=left;verticalAlign=middle;spacingLeft=4;spacingRight=4;overflow=hidden;points=[[0,0.5],[1,0.5]];portConstraint=eastwest;rotatable=0;" vertex="1" parent="56">
                    <mxGeometry x="20" y="50" width="180" height="30" as="geometry"/>
                </mxCell>
                <mxCell id="60" value="Item 1" style="text;strokeColor=none;fillColor=none;align=left;verticalAlign=middle;spacingLeft=4;spacingRight=4;overflow=hidden;points=[[0,0.5],[1,0.5]];portConstraint=eastwest;rotatable=0;" vertex="1" parent="56">
                    <mxGeometry x="20" y="20" width="180" height="30" as="geometry"/>
                </mxCell>
                <mxCell id="61" value="List" style="swimlane;fontStyle=0;childLayout=stackLayout;horizontal=1;startSize=20;horizontalStack=0;resizeParent=1;resizeParentMax=0;resizeLast=0;collapsible=1;marginBottom=0;" vertex="1" parent="56">
                    <mxGeometry x="20" width="180" height="20" as="geometry"/>
                </mxCell>
                <mxCell id="62" value="" style="group" vertex="1" connectable="0" parent="1">
                    <mxGeometry x="190" y="580" width="200" height="160" as="geometry"/>
                </mxCell>
                <mxCell id="63" value="" style="shape=internalStorage;whiteSpace=wrap;html=1;backgroundOutline=1;" vertex="1" parent="62">
                    <mxGeometry width="200" height="160" as="geometry"/>
                </mxCell>
                <mxCell id="64" value="Item 3" style="text;strokeColor=none;fillColor=none;align=left;verticalAlign=middle;spacingLeft=4;spacingRight=4;overflow=hidden;points=[[0,0.5],[1,0.5]];portConstraint=eastwest;rotatable=0;" vertex="1" parent="62">
                    <mxGeometry x="20" y="80" width="180" height="30" as="geometry"/>
                </mxCell>
                <mxCell id="65" value="Item 2" style="text;strokeColor=none;fillColor=none;align=left;verticalAlign=middle;spacingLeft=4;spacingRight=4;overflow=hidden;points=[[0,0.5],[1,0.5]];portConstraint=eastwest;rotatable=0;" vertex="1" parent="62">
                    <mxGeometry x="20" y="50" width="180" height="30" as="geometry"/>
                </mxCell>
                <mxCell id="66" value="Item 1" style="text;strokeColor=none;fillColor=none;align=left;verticalAlign=middle;spacingLeft=4;spacingRight=4;overflow=hidden;points=[[0,0.5],[1,0.5]];portConstraint=eastwest;rotatable=0;" vertex="1" parent="62">
                    <mxGeometry x="20" y="20" width="180" height="30" as="geometry"/>
                </mxCell>
                <mxCell id="67" value="List" style="swimlane;fontStyle=0;childLayout=stackLayout;horizontal=1;startSize=20;horizontalStack=0;resizeParent=1;resizeParentMax=0;resizeLast=0;collapsible=1;marginBottom=0;" vertex="1" parent="62">
                    <mxGeometry x="20" width="180" height="20" as="geometry"/>
                </mxCell>
                <mxCell id="68" value="" style="group" vertex="1" connectable="0" parent="1">
                    <mxGeometry x="200" y="590" width="200" height="160" as="geometry"/>
                </mxCell>
                <mxCell id="69" value="" style="shape=internalStorage;whiteSpace=wrap;html=1;backgroundOutline=1;" vertex="1" parent="68">
                    <mxGeometry width="200" height="160" as="geometry"/>
                </mxCell>
                <mxCell id="70" value="Item 3" style="text;strokeColor=none;fillColor=none;align=left;verticalAlign=middle;spacingLeft=4;spacingRight=4;overflow=hidden;points=[[0,0.5],[1,0.5]];portConstraint=eastwest;rotatable=0;" vertex="1" parent="68">
                    <mxGeometry x="20" y="80" width="180" height="30" as="geometry"/>
                </mxCell>
                <mxCell id="71" value="Item 2" style="text;strokeColor=none;fillColor=none;align=left;verticalAlign=middle;spacingLeft=4;spacingRight=4;overflow=hidden;points=[[0,0.5],[1,0.5]];portConstraint=eastwest;rotatable=0;" vertex="1" parent="68">
                    <mxGeometry x="20" y="50" width="180" height="30" as="geometry"/>
                </mxCell>
                <mxCell id="72" value="Item 1" style="text;strokeColor=none;fillColor=none;align=left;verticalAlign=middle;spacingLeft=4;spacingRight=4;overflow=hidden;points=[[0,0.5],[1,0.5]];portConstraint=eastwest;rotatable=0;" vertex="1" parent="68">
                    <mxGeometry x="20" y="20" width="180" height="30" as="geometry"/>
                </mxCell>
                <mxCell id="73" value="List" style="swimlane;fontStyle=0;childLayout=stackLayout;horizontal=1;startSize=20;horizontalStack=0;resizeParent=1;resizeParentMax=0;resizeLast=0;collapsible=1;marginBottom=0;" vertex="1" parent="68">
                    <mxGeometry x="20" width="180" height="20" as="geometry"/>
                </mxCell>
                <mxCell id="74" value="" style="group" vertex="1" connectable="0" parent="1">
                    <mxGeometry x="210" y="600" width="200" height="160" as="geometry"/>
                </mxCell>
                <mxCell id="75" value="" style="shape=internalStorage;whiteSpace=wrap;html=1;backgroundOutline=1;" vertex="1" parent="74">
                    <mxGeometry width="200" height="160" as="geometry"/>
                </mxCell>
                <mxCell id="76" value="Item 3" style="text;strokeColor=none;fillColor=none;align=left;verticalAlign=middle;spacingLeft=4;spacingRight=4;overflow=hidden;points=[[0,0.5],[1,0.5]];portConstraint=eastwest;rotatable=0;" vertex="1" parent="74">
                    <mxGeometry x="20" y="80" width="180" height="30" as="geometry"/>
                </mxCell>
                <mxCell id="77" value="Item 2" style="text;strokeColor=none;fillColor=none;align=left;verticalAlign=middle;spacingLeft=4;spacingRight=4;overflow=hidden;points=[[0,0.5],[1,0.5]];portConstraint=eastwest;rotatable=0;" vertex="1" parent="74">
                    <mxGeometry x="20" y="50" width="180" height="30" as="geometry"/>
                </mxCell>
                <mxCell id="78" value="Item 1" style="text;strokeColor=none;fillColor=none;align=left;verticalAlign=middle;spacingLeft=4;spacingRight=4;overflow=hidden;points=[[0,0.5],[1,0.5]];portConstraint=eastwest;rotatable=0;" vertex="1" parent="74">
                    <mxGeometry x="20" y="20" width="180" height="30" as="geometry"/>
                </mxCell>
                <mxCell id="79" value="List" style="swimlane;fontStyle=0;childLayout=stackLayout;horizontal=1;startSize=20;horizontalStack=0;resizeParent=1;resizeParentMax=0;resizeLast=0;collapsible=1;marginBottom=0;" vertex="1" parent="74">
                    <mxGeometry x="20" width="180" height="20" as="geometry"/>
                </mxCell>
                <mxCell id="80" value="" style="group" vertex="1" connectable="0" parent="1">
                    <mxGeometry x="220" y="610" width="200" height="160" as="geometry"/>
                </mxCell>
                <mxCell id="81" value="" style="shape=internalStorage;whiteSpace=wrap;html=1;backgroundOutline=1;" vertex="1" parent="80">
                    <mxGeometry width="200" height="160" as="geometry"/>
                </mxCell>
                <mxCell id="82" value="Item 3" style="text;strokeColor=none;fillColor=none;align=left;verticalAlign=middle;spacingLeft=4;spacingRight=4;overflow=hidden;points=[[0,0.5],[1,0.5]];portConstraint=eastwest;rotatable=0;" vertex="1" parent="80">
                    <mxGeometry x="20" y="80" width="180" height="30" as="geometry"/>
                </mxCell>
                <mxCell id="83" value="Item 2" style="text;strokeColor=none;fillColor=none;align=left;verticalAlign=middle;spacingLeft=4;spacingRight=4;overflow=hidden;points=[[0,0.5],[1,0.5]];portConstraint=eastwest;rotatable=0;" vertex="1" parent="80">
                    <mxGeometry x="20" y="50" width="180" height="30" as="geometry"/>
                </mxCell>
                <mxCell id="84" value="Item 1" style="text;strokeColor=none;fillColor=none;align=left;verticalAlign=middle;spacingLeft=4;spacingRight=4;overflow=hidden;points=[[0,0.5],[1,0.5]];portConstraint=eastwest;rotatable=0;" vertex="1" parent="80">
                    <mxGeometry x="20" y="20" width="180" height="30" as="geometry"/>
                </mxCell>
                <mxCell id="85" value="List" style="swimlane;fontStyle=0;childLayout=stackLayout;horizontal=1;startSize=20;horizontalStack=0;resizeParent=1;resizeParentMax=0;resizeLast=0;collapsible=1;marginBottom=0;" vertex="1" parent="80">
                    <mxGeometry x="20" width="180" height="20" as="geometry"/>
                </mxCell>
                <mxCell id="86" value="" style="group" vertex="1" connectable="0" parent="1">
                    <mxGeometry x="610" y="450" width="200" height="160" as="geometry"/>
                </mxCell>
                <mxCell id="87" value="" style="shape=internalStorage;whiteSpace=wrap;html=1;backgroundOutline=1;" vertex="1" parent="86">
                    <mxGeometry width="200" height="160" as="geometry"/>
                </mxCell>
                <mxCell id="88" value="Item 3" style="text;strokeColor=none;fillColor=none;align=left;verticalAlign=middle;spacingLeft=4;spacingRight=4;overflow=hidden;points=[[0,0.5],[1,0.5]];portConstraint=eastwest;rotatable=0;" vertex="1" parent="86">
                    <mxGeometry x="20" y="80" width="180" height="30" as="geometry"/>
                </mxCell>
                <mxCell id="89" value="Item 2" style="text;strokeColor=none;fillColor=none;align=left;verticalAlign=middle;spacingLeft=4;spacingRight=4;overflow=hidden;points=[[0,0.5],[1,0.5]];portConstraint=eastwest;rotatable=0;" vertex="1" parent="86">
                    <mxGeometry x="20" y="50" width="180" height="30" as="geometry"/>
                </mxCell>
                <mxCell id="90" value="Item 1" style="text;strokeColor=none;fillColor=none;align=left;verticalAlign=middle;spacingLeft=4;spacingRight=4;overflow=hidden;points=[[0,0.5],[1,0.5]];portConstraint=eastwest;rotatable=0;" vertex="1" parent="86">
                    <mxGeometry x="20" y="20" width="180" height="30" as="geometry"/>
                </mxCell>
                <mxCell id="91" value="List" style="swimlane;fontStyle=0;childLayout=stackLayout;horizontal=1;startSize=20;horizontalStack=0;resizeParent=1;resizeParentMax=0;resizeLast=0;collapsible=1;marginBottom=0;" vertex="1" parent="86">
                    <mxGeometry x="20" width="180" height="20" as="geometry"/>
                </mxCell>
            </root>
        </mxGraphModel>
    </diagram>
</mxfile>